<?xml version="1.0" encoding="utf-8"?>
<!-- Generator: Adobe Illustrator 16.0.0, SVG Export Plug-In . SVG Version: 6.00 Build 0)  -->
<!DOCTYPE svg PUBLIC "-//W3C//DTD SVG 1.1//EN" "http://www.w3.org/Graphics/SVG/1.1/DTD/svg11.dtd">
<svg version="1.1" id="Layer_1" xmlns="http://www.w3.org/2000/svg" xmlns:xlink="http://www.w3.org/1999/xlink" x="0px" y="0px"
	 width="1000px" height="109.156px" viewBox="285.762 31.193 1000 109.156" enable-background="new 285.762 31.193 1000 109.156"
	 xml:space="preserve">
<g>
	<path fill="#03080D" d="M973.894,32.096c0,36.075,0,72.15,0,108.225c-8.057,0-16.113,0-24.17,0c0-36.074,0-72.149,0-108.225
		C957.781,32.096,965.838,32.096,973.894,32.096L973.894,32.096z M768.448,32.096c0,36.075,0,72.15,0,108.225
		c-8.057,0-16.114,0-24.17,0c0-36.074,0-72.149,0-108.225C752.334,32.096,760.391,32.096,768.448,32.096L768.448,32.096z
		 M1129.829,117.954c0,6.165-2.499,11.75-6.54,15.798c-4.041,4.046-9.625,6.554-15.796,6.562c-3.186,0-7.029,0.208-10.186-0.372
		c-1.256-0.231-2.485-0.582-3.54-1.084c-1.206-0.572-2.229-1.246-3.159-2.03c-0.915-0.77-1.709-1.62-2.48-2.572l-63.211-78.06
		c-0.068-0.084-0.154-0.152-0.254-0.199c-0.173-0.082-0.333-0.068-0.516-0.068c-0.209,0-0.396,0.082-0.528,0.214
		c-0.216,0.215-0.212,0.376-0.212,0.616v83.563c-8.057,0-16.113,0-24.17,0V54.462c0-6.165,2.499-11.75,6.539-15.798
		c4.041-4.046,9.625-6.553,15.796-6.563c3.369,0,7.284-0.241,10.604,0.474c2.536,0.546,4.532,1.483,6.483,3.179
		c0.793,0.689,1.5,1.448,2.184,2.293l63.158,77.992c0.146,0.181,0.279,0.316,0.401,0.386c0.141,0.079,0.355,0.063,0.517,0.063
		c0.418,0,0.74-0.32,0.74-0.739v-1.898V32.096c8.056,0,16.112,0,24.17,0V117.954L1129.829,117.954z M718.934,117.954
		c0,6.165-2.499,11.75-6.539,15.798c-4.041,4.046-9.625,6.554-15.796,6.562c-3.186,0-7.03,0.208-10.185-0.372
		c-1.256-0.231-2.487-0.582-3.542-1.084c-1.204-0.572-2.228-1.246-3.159-2.03c-0.914-0.77-1.708-1.62-2.479-2.572l-63.211-78.06
		c-0.067-0.084-0.155-0.152-0.254-0.199c-0.173-0.082-0.332-0.068-0.516-0.068c-0.209,0-0.396,0.082-0.528,0.214
		c-0.215,0.215-0.212,0.376-0.212,0.616v83.563c-8.057,0-16.112,0-24.17,0V54.462c0-6.165,2.5-11.75,6.54-15.798
		c4.041-4.046,9.625-6.553,15.795-6.563c3.37,0,7.285-0.241,10.604,0.474c2.537,0.546,4.532,1.483,6.484,3.179
		c0.793,0.689,1.5,1.448,2.184,2.293l63.158,77.992c0.146,0.181,0.279,0.316,0.401,0.386c0.14,0.079,0.356,0.063,0.517,0.063
		c0.418,0,0.739-0.32,0.739-0.739v-1.898V32.096c8.057,0,16.113,0,24.17,0L718.934,117.954L718.934,117.954z M1179.341,74.304
		h106.422c0,7.937,0,15.872,0,23.809h-106.422c0,3.368-0.005,6.736-0.007,10.104c0.001,4.584,3.724,8.296,8.304,8.296h98.125
		c0,7.937,0,15.872,0,23.809h-98.125c-8.965,0-17.082-3.634-22.958-9.509c-5.874-5.876-9.509-13.993-9.509-22.958V64.563
		c0-8.965,3.635-17.082,9.509-22.958c5.876-5.876,13.993-9.51,22.958-9.51h98.125c0,7.937,0,15.873,0,23.81h-98.125
		c-4.58,0-8.303,3.712-8.304,8.295C1179.336,67.548,1179.341,70.943,1179.341,74.304L1179.341,74.304z M817.953,108.216
		c0.001,4.584,3.724,8.296,8.305,8.296h65.657c4.58,0,8.304-3.712,8.304-8.296c-0.001-3.348-0.007-6.744-0.007-10.104h-59.164
		c0-7.937,0-15.872,0-23.809c27.779,0,55.557,0,83.334,0c0,11.184,0,22.366,0,33.55c0,8.965-3.634,17.082-9.51,22.958
		c-5.875,5.875-13.992,9.509-22.957,9.509h-65.658c-8.965,0-17.082-3.634-22.957-9.509c-5.876-5.876-9.51-13.993-9.51-22.958V64.563
		c0-8.965,3.634-17.082,9.51-22.958c5.875-5.876,13.992-9.51,22.957-9.51h98.125c0,7.937,0,15.873,0,23.81h-98.125
		c-4.581,0-8.303,3.712-8.305,8.295C817.968,78.856,817.96,93.575,817.953,108.216L817.953,108.216z M464.876,116.512h65.657
		c2.292,0,4.365-0.929,5.867-2.429h0.007c2.451-2.451,2.426-4.732,2.424-7.812c0-24.724,0-49.45,0-74.176c8.057,0,16.114,0,24.171,0
		v75.758c0,8.965-3.634,17.082-9.51,22.958c-5.875,5.875-13.992,9.509-22.958,9.509h-65.657c-8.965,0-17.083-3.634-22.958-9.509
		c-5.876-5.876-9.51-13.993-9.51-22.958V32.096c8.057,0,16.114,0,24.17,0c0,24.653,0,49.307,0,73.96
		c0,3.047-0.161,5.443,2.423,8.026h0.008C460.51,115.583,462.585,116.512,464.876,116.512L464.876,116.512z"/>
	<path fill="#03080D" d="M367.473,31.193c4.433,0,8.446,1.798,11.352,4.702c2.905,2.905,4.703,6.919,4.703,11.352
		s-1.797,8.446-4.703,11.352c-2.905,2.904-6.919,4.702-11.352,4.702s-8.445-1.798-11.351-4.702
		c-2.905-2.905-4.702-6.919-4.702-11.352s1.797-8.446,4.702-11.352C359.028,32.991,363.04,31.193,367.473,31.193L367.473,31.193z
		 M301.817,96.85c4.433,0,8.446,1.798,11.351,4.703c2.905,2.906,4.703,6.919,4.703,11.352s-1.797,8.445-4.703,11.351
		c-2.905,2.905-6.918,4.703-11.351,4.703s-8.446-1.798-11.351-4.703c-2.905-2.905-4.703-6.919-4.703-11.352
		s1.798-8.446,4.703-11.352C293.37,98.647,297.384,96.85,301.817,96.85L301.817,96.85z M301.817,31.193
		c4.433,0,8.446,1.798,11.351,4.702c2.905,2.905,4.703,6.919,4.703,11.352s-1.797,8.446-4.703,11.352
		c-2.905,2.904-6.918,4.702-11.351,4.702s-8.446-1.798-11.351-4.702c-2.905-2.905-4.703-6.92-4.703-11.352s1.798-8.446,4.703-11.352
		C293.37,32.991,297.384,31.193,301.817,31.193L301.817,31.193z M367.473,96.85c4.433,0,8.446,1.798,11.352,4.703
		c2.906,2.906,4.703,6.919,4.703,11.352s-1.797,8.445-4.703,11.351c-2.905,2.905-6.919,4.703-11.352,4.703
		s-8.445-1.798-11.351-4.703c-2.905-2.904-4.702-6.918-4.702-11.351s1.797-8.445,4.702-11.352
		C359.028,98.647,363.04,96.85,367.473,96.85L367.473,96.85z"/>
</g>
</svg>
